<svg xmlns="http://www.w3.org/2000/svg" viewBox="0 0 512 512" xml:space="preserve"><path d="M473.736 285.897h-16.761v-65.14c0-8.888-3.461-17.243-9.745-23.527a33.2 33.2 0 0 0-10.392-7.054v-85.945c0-7.253-5.882-13.136-13.136-13.136s-13.136 5.882-13.136 13.136v85.96c-11.839 5.103-20.15 16.882-20.15 30.567v65.139H121.585v-65.139c0-8.888-3.461-17.243-9.762-23.544a33.4 33.4 0 0 0-10.388-7.037v-85.945c0-7.253-5.882-13.136-13.136-13.136s-13.136 5.882-13.136 13.136v85.962c-11.833 5.104-20.137 16.882-20.137 30.564v65.14H38.264C17.164 285.897 0 303.061 0 324.161v58.48c0 21.1 17.164 38.264 38.264 38.264h435.472c21.1 0 38.264-17.164 38.264-38.264v-58.48c0-21.1-17.164-38.264-38.264-38.264m-50.032-72.141a6.97 6.97 0 0 1 4.951 2.052 6.97 6.97 0 0 1 2.052 4.951v65.139h-14.016v-65.141h-.001c-.001-3.86 3.147-7.001 7.014-7.001m-342.406 7.001a7.009 7.009 0 0 1 11.964-4.949 6.97 6.97 0 0 1 2.052 4.951v65.139H81.298zM485.73 382.64c0 6.612-5.38 11.993-11.993 11.993H38.264c-6.612 0-11.993-5.38-11.993-11.993v-58.48c0-6.612 5.38-11.993 11.993-11.993h435.474c6.612 0 11.993 5.38 11.993 11.993z"/><path d="M231.924 340.266H88.299c-7.254 0-13.136 5.882-13.136 13.136s5.882 13.136 13.136 13.136h143.625c7.253 0 13.136-5.882 13.136-13.136-.001-7.254-5.883-13.136-13.136-13.136m64.798 0h-23.644c-7.253 0-13.136 5.882-13.136 13.136s5.882 13.136 13.136 13.136h23.644c7.253 0 13.136-5.882 13.136-13.136-.001-7.254-5.883-13.136-13.136-13.136m63.484 0h-23.644c-7.253 0-13.136 5.882-13.136 13.136s5.882 13.136 13.136 13.136h23.644c7.253 0 13.136-5.882 13.136-13.136s-5.882-13.136-13.136-13.136m63.498 0H400.06c-7.253 0-13.136 5.882-13.136 13.136s5.882 13.136 13.136 13.136h23.644c7.253 0 13.136-5.882 13.136-13.136-.001-7.254-5.883-13.136-13.136-13.136"/></svg>