<svg width="32" height="32" viewBox="0 -5 66.262 66.262" xmlns="http://www.w3.org/2000/svg"><g><g><g><path d="M43.032 14.667a2 2 0 0 1-1.232-.422 14.144 14.144 0 0 0-17.335 0 2.02 2.02 0 0 1-2.468-3.2 18.185 18.185 0 0 1 22.268 0 2.02 2.02 0 0 1-1.233 3.618Z" fill="#ffc52f"/></g><g><path d="M47.192 8.972a2 2 0 0 1-1.218-.412 21.17 21.17 0 0 0-25.683 0 2.02 2.02 0 1 1-2.441-3.217 25.2 25.2 0 0 1 30.563 0 2.017 2.017 0 0 1-1.221 3.627Z" fill="#ffc52f"/></g><g><path d="M38.872 20.364a2 2 0 0 1-1.264-.447 7.24 7.24 0 0 0-8.953 0 2.019 2.019 0 1 1-2.529-3.147 11.17 11.17 0 0 1 14.01 0 2.018 2.018 0 0 1-1.264 3.592Z" fill="#ffc52f"/></g></g><g><g><path d="M10.427.317C10.209.038 9.489-.001 9.147 0S8.084.038 7.866.317 7 40.217 7 40.737c0 1.039 4.292 1.111 4.292 0 0-.52-.646-40.139-.865-40.42" fill="#dce2e9"/><path d="M58.397.317c-.219-.279-.94-.318-1.281-.317s-1.062.038-1.281.317-.865 39.9-.865 40.42c0 1.039 4.292 1.111 4.292 0 .004-.52-.646-40.139-.865-40.42" fill="#dce2e9"/><path d="M6.333 38.221h52.724a3.7 3.7 0 0 1 3.7 3.7v10.66a3.7 3.7 0 0 1-3.7 3.7H6.333a3.7 3.7 0 0 1-3.7-3.7v-10.66a3.7 3.7 0 0 1 3.7-3.7" fill="#5a6271"/><g><path d="M3.7 35.59h58.866a3.7 3.7 0 0 1 3.7 3.7v8.563a3.7 3.7 0 0 1-3.7 3.7H3.7a3.7 3.7 0 0 1-3.7-3.7V39.29a3.7 3.7 0 0 1 3.7-3.7" fill="#dce2e9"/><path d="M62.566 50.667H3.696a3.7 3.7 0 0 1-3.7-3.7v.877a3.7 3.7 0 0 0 3.7 3.7h58.87a3.7 3.7 0 0 0 3.7-3.7v-.872a3.7 3.7 0 0 1-3.7 3.695" fill="#bfc8d5"/><path d="M689.8 359.318h-58.87a3.7 3.7 0 0 0-3.7 3.7v.877a3.7 3.7 0 0 1 3.7-3.7h58.87a3.7 3.7 0 0 1 3.7 3.7v-.877a3.7 3.7 0 0 0-3.7-3.7" fill="#dce2e9" style="mix-blend-mode:screen;isolation:isolate" transform="translate(-627.234 -323.728)"/></g><path d="M6.041 40.61a2.021 2.021 0 1 1-2.019-2.02 2.02 2.02 0 0 1 2.019 2.02" fill="#ffc52f"/><path d="M6.041 46.61a2.021 2.021 0 1 1-2.019-2.02 2.02 2.02 0 0 1 2.019 2.02" fill="#8c93a1"/></g><path d="M49.193 45.572H17.066a2 2 0 0 1 0-4h32.122a2 2 0 0 1 0 4Z" fill="#8c93a1"/></g></g></svg>
