<svg xmlns="http://www.w3.org/2000/svg" xmlns:xlink="http://www.w3.org/1999/xlink" width="37.1841" height="37.1524" viewBox="0 0 37.1841 37.1524"><rect width="19" height="23" x="9" y="7" fill="#000"/><path fill="#fff" d="M18.61-0.10C8.34-0.10 0 8.21 0 18.42C0 28.66 8.34 36.93 18.61 36.93C28.85 36.93 37.18 28.66 37.18 18.42C37.18 8.21 28.85-0.10 18.61-0.10ZM21.02 29.42L21.02 10.37L19.31 10.37C16.17 10.37 14.52 11.95 14.52 14.30C14.52 16.96 15.66 18.20 18.01 19.78L19.94 21.08L14.36 29.42L10.21 29.42L15.22 21.97C12.33 19.91 10.71 17.91 10.71 14.52C10.71 10.27 13.66 7.39 19.27 7.39L24.85 7.39L24.85 29.42Z"/><path fill="#fff" d=""/></svg>