<svg xmlns="http://www.w3.org/2000/svg" xmlns:xlink="http://www.w3.org/1999/xlink" width="202.0875" height="37.1524" viewBox="0 0 202.0875 37.1524"><path fill="#fff" d="M1.58 7.39L1.58 29.42L5.83 29.42L12.90 13.41L12.90 29.42L16.64 29.42L16.64 7.39L12.46 7.39L5.33 23.52L5.33 7.39ZM28.63 13.47L28.63 19.78L23.58 19.78L23.58 13.47L19.81 13.47L19.81 29.42L23.58 29.42L23.58 22.76L28.63 22.76L28.63 29.42L32.40 29.42L32.40 13.47ZM47.26 16.45L47.26 13.47L34.62 13.47L34.62 16.45L39.05 16.45L39.05 29.42L42.83 29.42L42.83 16.45ZM60.74 28.34L60.74 25.26C59.56 26.06 57.60 26.75 55.76 26.75C53.00 26.75 51.96 25.46 51.80 22.79L60.90 22.79L60.90 20.80C60.90 15.25 58.45 13.16 54.68 13.16C50.09 13.16 47.90 16.67 47.90 21.49C47.90 27.04 50.62 29.73 55.44 29.73C57.85 29.73 59.63 29.10 60.74 28.34ZM54.62 16.14C56.49 16.14 57.06 17.69 57.06 19.69L57.06 20.00L51.80 20.00C51.89 17.47 52.81 16.14 54.62 16.14ZM66.92 13.47L63.43 13.47L63.43 34.01L67.20 34.01L67.20 27.55C68.16 28.97 69.55 29.73 71.17 29.73C74.84 29.73 77.38 26.79 77.38 21.43C77.38 16.10 74.91 13.16 71.36 13.16C69.58 13.16 68.12 13.98 67.11 15.53ZM70.22 26.75C68.22 26.75 67.20 25.14 67.20 21.46C67.20 17.75 68.28 16.14 70.41 16.14C72.47 16.14 73.48 17.75 73.48 21.43C73.48 25.14 72.40 26.75 70.22 26.75ZM88.73 13.47L88.73 19.78L83.69 19.78L83.69 13.47L79.92 13.47L79.92 29.42L83.69 29.42L83.69 22.76L88.73 22.76L88.73 29.42L92.50 29.42L92.50 13.47ZM107.88 28.34L107.88 25.26C106.70 26.06 104.74 26.75 102.90 26.75C100.14 26.75 99.09 25.46 98.94 22.79L108.03 22.79L108.03 20.80C108.03 15.25 105.59 13.16 101.82 13.16C97.22 13.16 95.04 16.67 95.04 21.49C95.04 27.04 97.76 29.73 102.58 29.73C104.99 29.73 106.77 29.10 107.88 28.34ZM101.76 16.14C103.63 16.14 104.20 17.69 104.20 19.69L104.20 20.00L98.94 20.00C99.03 17.47 99.95 16.14 101.76 16.14ZM121.47 16.45L121.47 13.47L108.83 13.47L108.83 16.45L113.26 16.45L113.26 29.42L117.04 29.42L117.04 16.45ZM129.15 13.16C124.99 13.16 122.11 16.10 122.11 21.46C122.11 26.79 124.99 29.73 129.15 29.73C133.30 29.73 136.18 26.79 136.18 21.43C136.18 16.10 133.30 13.16 129.15 13.16ZM129.15 26.75C127.05 26.75 126.01 25.14 126.01 21.46C126.01 17.75 127.05 16.14 129.15 16.14C131.24 16.14 132.28 17.75 132.28 21.43C132.28 25.14 131.24 26.75 129.15 26.75ZM152.32 29.42L156.00 29.42L155.93 13.47L150.77 13.47L147.31 24.09L144.20 13.47L138.72 13.47L138.72 29.42L141.92 29.42L141.92 17.50L145.38 29.42L148.45 29.42L152.32 17.50ZM171.37 28.34L171.37 25.26C170.20 26.06 168.23 26.75 166.39 26.75C163.64 26.75 162.59 25.46 162.43 22.79L171.53 22.79L171.53 20.80C171.53 15.25 169.09 13.16 165.32 13.16C160.72 13.16 158.53 16.67 158.53 21.49C158.53 27.04 161.26 29.73 166.08 29.73C168.49 29.73 170.26 29.10 171.37 28.34ZM165.25 16.14C167.12 16.14 167.69 17.69 167.69 19.69L167.69 20.00L162.43 20.00C162.53 17.47 163.45 16.14 165.25 16.14ZM184.97 16.45L184.97 13.47L172.32 13.47L172.32 16.45L176.76 16.45L176.76 29.42L180.53 29.42L180.53 16.45ZM190.68 13.47L187.19 13.47L187.19 34.01L190.96 34.01L190.96 27.55C191.91 28.97 193.31 29.73 194.92 29.73C198.60 29.73 201.14 26.79 201.14 21.43C201.14 16.10 198.66 13.16 195.11 13.16C193.34 13.16 191.88 13.98 190.87 15.53ZM193.97 26.75C191.98 26.75 190.96 25.14 190.96 21.46C190.96 17.75 192.04 16.14 194.16 16.14C196.22 16.14 197.24 17.75 197.24 21.43C197.24 25.14 196.16 26.75 193.97 26.75Z"/></svg>